<svg width="1290" height="461" viewBox="0 0 1290 461" fill="none" xmlns="http://www.w3.org/2000/svg">
<path d="M638.79 133.266V311H605.099L529.537 187.709V311H495.968V133.266H529.537L605.343 256.679V133.266H638.79ZM729.854 313.441C719.845 313.441 710.852 311.814 702.877 308.559C694.902 305.303 688.106 300.787 682.491 295.009C676.957 289.149 672.685 282.354 669.674 274.623C666.744 266.811 665.279 258.428 665.279 249.477V244.594C665.279 234.421 666.744 225.185 669.674 216.884C672.604 208.502 676.754 201.299 682.125 195.277C687.496 189.255 693.925 184.617 701.412 181.361C708.899 178.106 717.159 176.479 726.192 176.479C735.551 176.479 743.811 178.065 750.973 181.239C758.134 184.332 764.116 188.726 768.917 194.423C773.718 200.119 777.34 206.955 779.781 214.931C782.223 222.825 783.443 231.573 783.443 241.176V254.726H679.928V232.509H751.705V230.067C751.542 224.94 750.566 220.261 748.775 216.029C746.985 211.716 744.218 208.298 740.475 205.775C736.731 203.171 731.889 201.869 725.948 201.869C721.147 201.869 716.956 202.927 713.375 205.043C709.876 207.077 706.946 210.007 704.586 213.832C702.307 217.576 700.598 222.051 699.459 227.26C698.32 232.468 697.75 238.246 697.75 244.594V249.477C697.75 255.01 698.482 260.137 699.947 264.857C701.493 269.577 703.731 273.687 706.661 277.187C709.672 280.604 713.253 283.29 717.403 285.243C721.635 287.115 726.437 288.051 731.808 288.051C738.562 288.051 744.666 286.749 750.118 284.145C755.652 281.459 760.453 277.512 764.522 272.304L780.758 289.149C777.991 293.218 774.247 297.125 769.527 300.868C764.889 304.612 759.273 307.663 752.682 310.023C746.09 312.302 738.481 313.441 729.854 313.441ZM841.793 279.262L870.724 178.92H891.231L885.128 213.588L855.953 311H838.253L841.793 279.262ZM825.802 178.92L847.53 279.506L849.483 311H829.098L794.43 178.92H825.802ZM918.087 278.041L939.327 178.92H970.577L936.153 311H915.768L918.087 278.041ZM894.405 178.92L923.092 278.285L926.876 311H909.176L879.757 213.588L873.775 178.92H894.405ZM1062.25 274.867C1062.25 272.1 1061.52 269.618 1060.05 267.421C1058.59 265.224 1055.82 263.23 1051.75 261.439C1047.77 259.568 1041.91 257.818 1034.18 256.19C1027.34 254.726 1021.03 252.895 1015.25 250.697C1009.48 248.5 1004.51 245.855 1000.36 242.763C996.212 239.589 992.957 235.886 990.597 231.654C988.318 227.341 987.179 222.377 987.179 216.762C987.179 211.309 988.359 206.182 990.719 201.381C993.079 196.498 996.497 192.226 1000.97 188.563C1005.45 184.82 1010.9 181.89 1017.33 179.774C1023.76 177.577 1031 176.479 1039.06 176.479C1050.29 176.479 1059.93 178.31 1067.99 181.972C1076.13 185.634 1082.35 190.679 1086.67 197.108C1090.98 203.456 1093.14 210.618 1093.14 218.593H1060.91C1060.91 215.093 1060.1 211.92 1058.47 209.071C1056.92 206.223 1054.52 203.944 1051.27 202.235C1048.01 200.445 1043.9 199.55 1038.94 199.55C1034.46 199.55 1030.68 200.282 1027.58 201.747C1024.57 203.212 1022.29 205.124 1020.75 207.484C1019.2 209.844 1018.43 212.449 1018.43 215.297C1018.43 217.413 1018.84 219.325 1019.65 221.034C1020.54 222.662 1021.97 224.167 1023.92 225.551C1025.88 226.934 1028.52 228.196 1031.86 229.335C1035.27 230.474 1039.47 231.573 1044.43 232.631C1054.28 234.584 1062.86 237.188 1070.19 240.443C1077.59 243.617 1083.37 247.849 1087.52 253.139C1091.67 258.428 1093.75 265.183 1093.75 273.402C1093.75 279.262 1092.48 284.633 1089.96 289.516C1087.44 294.317 1083.78 298.508 1078.98 302.089C1074.17 305.67 1068.44 308.477 1061.76 310.512C1055.09 312.465 1047.56 313.441 1039.18 313.441C1027.06 313.441 1016.8 311.285 1008.42 306.972C1000.04 302.577 993.689 297.043 989.376 290.37C985.063 283.616 982.906 276.617 982.906 269.374H1013.79C1014.03 274.501 1015.42 278.611 1017.94 281.703C1020.46 284.796 1023.64 287.034 1027.46 288.417C1031.37 289.719 1035.48 290.37 1039.79 290.37C1044.67 290.37 1048.78 289.719 1052.12 288.417C1055.46 287.034 1057.98 285.202 1059.69 282.924C1061.4 280.564 1062.25 277.878 1062.25 274.867Z" fill="black"/>
<rect x="229" y="63" width="209" height="327" rx="10" fill="#DC1B1B"/>
<path d="M379.888 206.63V232.997H286.382V206.63H379.888ZM295.537 133.266V311H261.968V133.266H295.537ZM404.79 133.266V311H371.221V133.266H404.79Z" fill="white"/>
</svg>
